<mxfile host="app.diagrams.net" modified="2021-10-01T18:41:19.978Z" agent="5.0 (Windows NT 10.0; Win64; x64) AppleWebKit/537.36 (KHTML, like Gecko) Chrome/94.0.4606.61 Safari/537.36" etag="sPMbT-uzv7Gj1H_slJEB" version="15.4.0" type="github">
  <diagram id="IBoax0R8e05wuEG3Sr29" name="Page-1">
    <mxGraphModel dx="1888" dy="764" grid="1" gridSize="10" guides="1" tooltips="1" connect="1" arrows="1" fold="1" page="1" pageScale="1" pageWidth="827" pageHeight="1169" math="0" shadow="0">
      <root>
        <mxCell id="0" />
        <mxCell id="1" parent="0" />
        <mxCell id="Jb8ixT8g17bY8R6g0OLm-4" value="" style="edgeStyle=orthogonalEdgeStyle;rounded=0;orthogonalLoop=1;jettySize=auto;html=1;" edge="1" parent="1" source="Jb8ixT8g17bY8R6g0OLm-1" target="Jb8ixT8g17bY8R6g0OLm-3">
          <mxGeometry relative="1" as="geometry" />
        </mxCell>
        <mxCell id="Jb8ixT8g17bY8R6g0OLm-1" value="&lt;h1&gt;Start&lt;/h1&gt;" style="ellipse;whiteSpace=wrap;html=1;aspect=fixed;fillColor=#dae8fc;strokeColor=#6c8ebf;" vertex="1" parent="1">
          <mxGeometry x="307" y="41" width="70" height="70" as="geometry" />
        </mxCell>
        <mxCell id="Jb8ixT8g17bY8R6g0OLm-6" value="" style="edgeStyle=orthogonalEdgeStyle;rounded=0;orthogonalLoop=1;jettySize=auto;html=1;" edge="1" parent="1" source="Jb8ixT8g17bY8R6g0OLm-3" target="Jb8ixT8g17bY8R6g0OLm-5">
          <mxGeometry relative="1" as="geometry" />
        </mxCell>
        <mxCell id="Jb8ixT8g17bY8R6g0OLm-3" value="&lt;h3&gt;&lt;font style=&quot;font-size: 15px&quot;&gt;Запрашиваем у пользователя число (n)&lt;/font&gt;&lt;/h3&gt;" style="whiteSpace=wrap;html=1;strokeColor=#6c8ebf;fillColor=#dae8fc;" vertex="1" parent="1">
          <mxGeometry x="274" y="151" width="136" height="65" as="geometry" />
        </mxCell>
        <mxCell id="Jb8ixT8g17bY8R6g0OLm-10" value="" style="edgeStyle=orthogonalEdgeStyle;rounded=0;orthogonalLoop=1;jettySize=auto;html=1;startArrow=none;" edge="1" parent="1" source="Jb8ixT8g17bY8R6g0OLm-11" target="Jb8ixT8g17bY8R6g0OLm-3">
          <mxGeometry relative="1" as="geometry">
            <mxPoint x="56" y="346" as="targetPoint" />
            <Array as="points">
              <mxPoint x="178" y="184" />
            </Array>
          </mxGeometry>
        </mxCell>
        <mxCell id="Jb8ixT8g17bY8R6g0OLm-15" value="" style="edgeStyle=orthogonalEdgeStyle;rounded=0;orthogonalLoop=1;jettySize=auto;html=1;startArrow=none;" edge="1" parent="1" source="Jb8ixT8g17bY8R6g0OLm-17" target="Jb8ixT8g17bY8R6g0OLm-14">
          <mxGeometry relative="1" as="geometry" />
        </mxCell>
        <mxCell id="Jb8ixT8g17bY8R6g0OLm-5" value="&lt;h3&gt;&lt;font style=&quot;font-size: 15px&quot;&gt;n &amp;lt; -80 или n &amp;gt; 45&lt;/font&gt;&lt;/h3&gt;" style="rhombus;whiteSpace=wrap;html=1;strokeColor=#6c8ebf;fillColor=#dae8fc;" vertex="1" parent="1">
          <mxGeometry x="239" y="271" width="206" height="70" as="geometry" />
        </mxCell>
        <mxCell id="Jb8ixT8g17bY8R6g0OLm-11" value="&lt;h3 style=&quot;font-size: 15px&quot;&gt;да&lt;/h3&gt;" style="text;html=1;strokeColor=none;fillColor=none;align=center;verticalAlign=middle;whiteSpace=wrap;rounded=0;" vertex="1" parent="1">
          <mxGeometry x="148" y="241" width="60" height="30" as="geometry" />
        </mxCell>
        <mxCell id="Jb8ixT8g17bY8R6g0OLm-12" value="" style="edgeStyle=orthogonalEdgeStyle;rounded=0;orthogonalLoop=1;jettySize=auto;html=1;endArrow=none;" edge="1" parent="1" source="Jb8ixT8g17bY8R6g0OLm-5" target="Jb8ixT8g17bY8R6g0OLm-11">
          <mxGeometry relative="1" as="geometry">
            <mxPoint x="239" y="346" as="sourcePoint" />
            <mxPoint x="274" y="203.5" as="targetPoint" />
            <Array as="points">
              <mxPoint x="178" y="306" />
            </Array>
          </mxGeometry>
        </mxCell>
        <mxCell id="Jb8ixT8g17bY8R6g0OLm-22" value="" style="edgeStyle=orthogonalEdgeStyle;rounded=0;orthogonalLoop=1;jettySize=auto;html=1;startArrow=none;" edge="1" parent="1" source="Jb8ixT8g17bY8R6g0OLm-24">
          <mxGeometry relative="1" as="geometry">
            <mxPoint x="160" y="441" as="targetPoint" />
            <Array as="points">
              <mxPoint x="188" y="441" />
              <mxPoint x="188" y="441" />
            </Array>
          </mxGeometry>
        </mxCell>
        <mxCell id="Jb8ixT8g17bY8R6g0OLm-48" value="&lt;h3&gt;&lt;font style=&quot;font-size: 15px&quot;&gt;нет&lt;/font&gt;&lt;/h3&gt;" style="edgeStyle=orthogonalEdgeStyle;rounded=0;orthogonalLoop=1;jettySize=auto;html=1;" edge="1" parent="1" source="Jb8ixT8g17bY8R6g0OLm-14" target="Jb8ixT8g17bY8R6g0OLm-39">
          <mxGeometry relative="1" as="geometry" />
        </mxCell>
        <mxCell id="Jb8ixT8g17bY8R6g0OLm-14" value="&lt;h3&gt;&lt;span style=&quot;font-size: 15px&quot;&gt;n &amp;gt; 0&lt;/span&gt;&lt;/h3&gt;" style="rhombus;whiteSpace=wrap;html=1;strokeColor=#6c8ebf;fillColor=#dae8fc;" vertex="1" parent="1">
          <mxGeometry x="277" y="416" width="129" height="50" as="geometry" />
        </mxCell>
        <mxCell id="Jb8ixT8g17bY8R6g0OLm-17" value="&lt;h3&gt;&lt;font style=&quot;font-size: 15px&quot;&gt;нет&lt;/font&gt;&lt;/h3&gt;" style="text;html=1;strokeColor=none;fillColor=none;align=center;verticalAlign=middle;whiteSpace=wrap;rounded=0;" vertex="1" parent="1">
          <mxGeometry x="312" y="361" width="60" height="30" as="geometry" />
        </mxCell>
        <mxCell id="Jb8ixT8g17bY8R6g0OLm-18" value="" style="edgeStyle=orthogonalEdgeStyle;rounded=0;orthogonalLoop=1;jettySize=auto;html=1;endArrow=none;" edge="1" parent="1" source="Jb8ixT8g17bY8R6g0OLm-5" target="Jb8ixT8g17bY8R6g0OLm-17">
          <mxGeometry relative="1" as="geometry">
            <mxPoint x="342" y="341" as="sourcePoint" />
            <mxPoint x="342" y="421" as="targetPoint" />
          </mxGeometry>
        </mxCell>
        <mxCell id="Jb8ixT8g17bY8R6g0OLm-34" value="&lt;h3&gt;&lt;font style=&quot;font-size: 15px&quot;&gt;да&lt;/font&gt;&lt;/h3&gt;" style="edgeStyle=orthogonalEdgeStyle;rounded=0;orthogonalLoop=1;jettySize=auto;html=1;entryX=0.5;entryY=0;entryDx=0;entryDy=0;exitX=0;exitY=0.5;exitDx=0;exitDy=0;" edge="1" parent="1" source="Jb8ixT8g17bY8R6g0OLm-21" target="Jb8ixT8g17bY8R6g0OLm-31">
          <mxGeometry x="-0.5676" relative="1" as="geometry">
            <mxPoint x="552" y="635" as="sourcePoint" />
            <mxPoint x="102" y="685" as="targetPoint" />
            <Array as="points">
              <mxPoint x="414" y="610" />
            </Array>
            <mxPoint as="offset" />
          </mxGeometry>
        </mxCell>
        <mxCell id="Jb8ixT8g17bY8R6g0OLm-42" value="" style="edgeStyle=orthogonalEdgeStyle;rounded=0;orthogonalLoop=1;jettySize=auto;html=1;entryX=0.5;entryY=1;entryDx=0;entryDy=0;" edge="1" parent="1" target="Jb8ixT8g17bY8R6g0OLm-44">
          <mxGeometry relative="1" as="geometry">
            <mxPoint x="612" y="605" as="sourcePoint" />
            <mxPoint x="682" y="505" as="targetPoint" />
            <Array as="points">
              <mxPoint x="714" y="605" />
            </Array>
          </mxGeometry>
        </mxCell>
        <mxCell id="Jb8ixT8g17bY8R6g0OLm-43" value="&lt;h3&gt;&lt;font style=&quot;font-size: 15px&quot;&gt;нет&lt;/font&gt;&lt;/h3&gt;" style="edgeLabel;html=1;align=center;verticalAlign=middle;resizable=0;points=[];" vertex="1" connectable="0" parent="Jb8ixT8g17bY8R6g0OLm-42">
          <mxGeometry x="-0.1571" y="4" relative="1" as="geometry">
            <mxPoint x="-13" y="4" as="offset" />
          </mxGeometry>
        </mxCell>
        <mxCell id="Jb8ixT8g17bY8R6g0OLm-21" value="&lt;h3&gt;&lt;font style=&quot;font-size: 15px&quot;&gt;n кратно двум&lt;/font&gt;&lt;/h3&gt;" style="whiteSpace=wrap;html=1;strokeColor=#6c8ebf;fillColor=#dae8fc;" vertex="1" parent="1">
          <mxGeometry x="492" y="580" width="120" height="60" as="geometry" />
        </mxCell>
        <mxCell id="Jb8ixT8g17bY8R6g0OLm-24" value="&lt;h3&gt;&lt;font style=&quot;font-size: 15px&quot;&gt;да&lt;/font&gt;&lt;/h3&gt;" style="text;html=1;strokeColor=none;fillColor=none;align=center;verticalAlign=middle;whiteSpace=wrap;rounded=0;" vertex="1" parent="1">
          <mxGeometry x="188" y="426" width="60" height="30" as="geometry" />
        </mxCell>
        <mxCell id="Jb8ixT8g17bY8R6g0OLm-25" value="" style="edgeStyle=orthogonalEdgeStyle;rounded=0;orthogonalLoop=1;jettySize=auto;html=1;endArrow=none;exitX=0;exitY=0.5;exitDx=0;exitDy=0;" edge="1" parent="1" source="Jb8ixT8g17bY8R6g0OLm-14" target="Jb8ixT8g17bY8R6g0OLm-24">
          <mxGeometry relative="1" as="geometry">
            <mxPoint x="277" y="446" as="sourcePoint" />
            <mxPoint x="192.5" y="446" as="targetPoint" />
            <Array as="points">
              <mxPoint x="268" y="441" />
              <mxPoint x="268" y="441" />
            </Array>
          </mxGeometry>
        </mxCell>
        <mxCell id="Jb8ixT8g17bY8R6g0OLm-28" value="&lt;h1&gt;&lt;font style=&quot;font-size: 24px&quot;&gt;END&lt;/font&gt;&lt;/h1&gt;" style="ellipse;whiteSpace=wrap;html=1;aspect=fixed;fillColor=#dae8fc;strokeColor=#6c8ebf;" vertex="1" parent="1">
          <mxGeometry x="312" y="760" width="70" height="70" as="geometry" />
        </mxCell>
        <mxCell id="Jb8ixT8g17bY8R6g0OLm-32" value="" style="edgeStyle=orthogonalEdgeStyle;rounded=0;orthogonalLoop=1;jettySize=auto;html=1;entryX=0.75;entryY=1;entryDx=0;entryDy=0;" edge="1" parent="1" source="Jb8ixT8g17bY8R6g0OLm-31" target="Jb8ixT8g17bY8R6g0OLm-44">
          <mxGeometry relative="1" as="geometry" />
        </mxCell>
        <mxCell id="Jb8ixT8g17bY8R6g0OLm-63" value="" style="edgeStyle=orthogonalEdgeStyle;rounded=0;orthogonalLoop=1;jettySize=auto;html=1;" edge="1" parent="1" source="Jb8ixT8g17bY8R6g0OLm-31" target="Jb8ixT8g17bY8R6g0OLm-62">
          <mxGeometry relative="1" as="geometry" />
        </mxCell>
        <mxCell id="Jb8ixT8g17bY8R6g0OLm-31" value="&lt;h3&gt;&lt;font style=&quot;font-size: 15px&quot;&gt;Выводим это число&lt;/font&gt;&lt;/h3&gt;" style="rounded=0;whiteSpace=wrap;html=1;glass=0;fillColor=#dae8fc;strokeColor=#6c8ebf;" vertex="1" parent="1">
          <mxGeometry x="354" y="680" width="120" height="60" as="geometry" />
        </mxCell>
        <mxCell id="Jb8ixT8g17bY8R6g0OLm-40" value="&lt;h3&gt;&lt;font style=&quot;font-size: 15px&quot;&gt;да&lt;/font&gt;&lt;/h3&gt;" style="edgeStyle=orthogonalEdgeStyle;rounded=0;orthogonalLoop=1;jettySize=auto;html=1;entryX=0.5;entryY=0;entryDx=0;entryDy=0;" edge="1" parent="1" source="Jb8ixT8g17bY8R6g0OLm-39" target="Jb8ixT8g17bY8R6g0OLm-21">
          <mxGeometry relative="1" as="geometry">
            <mxPoint x="552" y="575" as="targetPoint" />
          </mxGeometry>
        </mxCell>
        <mxCell id="Jb8ixT8g17bY8R6g0OLm-51" value="&lt;h3&gt;&lt;font style=&quot;font-size: 15px&quot;&gt;нет&lt;/font&gt;&lt;/h3&gt;" style="edgeStyle=orthogonalEdgeStyle;rounded=0;orthogonalLoop=1;jettySize=auto;html=1;exitX=0.5;exitY=0;exitDx=0;exitDy=0;entryX=1;entryY=0.5;entryDx=0;entryDy=0;" edge="1" parent="1" source="Jb8ixT8g17bY8R6g0OLm-39" target="Jb8ixT8g17bY8R6g0OLm-28">
          <mxGeometry x="-0.7406" relative="1" as="geometry">
            <mxPoint x="552" y="331" as="targetPoint" />
            <Array as="points">
              <mxPoint x="552" y="391" />
              <mxPoint x="800" y="391" />
              <mxPoint x="800" y="795" />
            </Array>
            <mxPoint as="offset" />
          </mxGeometry>
        </mxCell>
        <mxCell id="Jb8ixT8g17bY8R6g0OLm-39" value="&lt;h3&gt;&lt;font style=&quot;font-size: 15px&quot;&gt;n меньше 0&lt;/font&gt;&lt;/h3&gt;" style="rounded=0;whiteSpace=wrap;html=1;glass=0;fillColor=#dae8fc;strokeColor=#6c8ebf;" vertex="1" parent="1">
          <mxGeometry x="492" y="411" width="120" height="60" as="geometry" />
        </mxCell>
        <mxCell id="Jb8ixT8g17bY8R6g0OLm-46" value="" style="edgeStyle=orthogonalEdgeStyle;rounded=0;orthogonalLoop=1;jettySize=auto;html=1;entryX=1;entryY=0.5;entryDx=0;entryDy=0;" edge="1" parent="1" source="Jb8ixT8g17bY8R6g0OLm-44" target="Jb8ixT8g17bY8R6g0OLm-39">
          <mxGeometry relative="1" as="geometry">
            <mxPoint x="714" y="420" as="targetPoint" />
            <Array as="points">
              <mxPoint x="714" y="440" />
            </Array>
          </mxGeometry>
        </mxCell>
        <mxCell id="Jb8ixT8g17bY8R6g0OLm-44" value="&lt;h3&gt;&lt;font style=&quot;font-size: 15px&quot;&gt;прибавляем 1 к n&lt;/font&gt;&lt;/h3&gt;" style="rounded=0;whiteSpace=wrap;html=1;glass=0;fillColor=#dae8fc;strokeColor=#6c8ebf;" vertex="1" parent="1">
          <mxGeometry x="644" y="490" width="140" height="60" as="geometry" />
        </mxCell>
        <mxCell id="Jb8ixT8g17bY8R6g0OLm-54" value="" style="edgeStyle=orthogonalEdgeStyle;rounded=0;orthogonalLoop=1;jettySize=auto;html=1;" edge="1" parent="1" source="Jb8ixT8g17bY8R6g0OLm-52" target="Jb8ixT8g17bY8R6g0OLm-53">
          <mxGeometry relative="1" as="geometry" />
        </mxCell>
        <mxCell id="Jb8ixT8g17bY8R6g0OLm-52" value="&lt;h3&gt;&lt;font style=&quot;font-size: 15px&quot;&gt;Вводим новую переменную &quot;temp&quot; и присваиваем ей значение 1&amp;nbsp;&lt;/font&gt;&lt;/h3&gt;" style="rounded=0;whiteSpace=wrap;html=1;glass=0;fillColor=#dae8fc;strokeColor=#6c8ebf;" vertex="1" parent="1">
          <mxGeometry y="391.5" width="160" height="99" as="geometry" />
        </mxCell>
        <mxCell id="Jb8ixT8g17bY8R6g0OLm-56" value="&lt;h3&gt;&lt;font style=&quot;font-size: 15px&quot;&gt;нет&lt;/font&gt;&lt;/h3&gt;" style="edgeStyle=orthogonalEdgeStyle;rounded=0;orthogonalLoop=1;jettySize=auto;html=1;exitX=0;exitY=0.5;exitDx=0;exitDy=0;entryX=0;entryY=0.5;entryDx=0;entryDy=0;" edge="1" parent="1" source="Jb8ixT8g17bY8R6g0OLm-53" target="Jb8ixT8g17bY8R6g0OLm-28">
          <mxGeometry x="-0.866" relative="1" as="geometry">
            <mxPoint x="250" y="820" as="targetPoint" />
            <Array as="points">
              <mxPoint x="-70" y="570" />
              <mxPoint x="-70" y="795" />
            </Array>
            <mxPoint as="offset" />
          </mxGeometry>
        </mxCell>
        <mxCell id="Jb8ixT8g17bY8R6g0OLm-58" value="&lt;h3&gt;&lt;font style=&quot;font-size: 15px&quot;&gt;да&lt;/font&gt;&lt;/h3&gt;" style="edgeStyle=orthogonalEdgeStyle;rounded=0;orthogonalLoop=1;jettySize=auto;html=1;entryX=0;entryY=0.5;entryDx=0;entryDy=0;" edge="1" parent="1" source="Jb8ixT8g17bY8R6g0OLm-53" target="Jb8ixT8g17bY8R6g0OLm-59">
          <mxGeometry relative="1" as="geometry">
            <mxPoint x="80" y="670" as="targetPoint" />
          </mxGeometry>
        </mxCell>
        <mxCell id="Jb8ixT8g17bY8R6g0OLm-53" value="&lt;h3&gt;&lt;font style=&quot;font-size: 15px&quot;&gt;temp меньше 1&lt;/font&gt;&lt;/h3&gt;" style="whiteSpace=wrap;html=1;rounded=0;strokeColor=#6c8ebf;fillColor=#dae8fc;glass=0;" vertex="1" parent="1">
          <mxGeometry x="20" y="540" width="120" height="60" as="geometry" />
        </mxCell>
        <mxCell id="Jb8ixT8g17bY8R6g0OLm-61" value="&lt;h3&gt;&lt;font style=&quot;font-size: 15px&quot;&gt;да&lt;/font&gt;&lt;/h3&gt;" style="edgeStyle=orthogonalEdgeStyle;rounded=0;orthogonalLoop=1;jettySize=auto;html=1;entryX=0.25;entryY=0;entryDx=0;entryDy=0;" edge="1" parent="1" source="Jb8ixT8g17bY8R6g0OLm-59" target="Jb8ixT8g17bY8R6g0OLm-31">
          <mxGeometry x="-0.6552" relative="1" as="geometry">
            <mxPoint x="240" y="700" as="targetPoint" />
            <mxPoint as="offset" />
          </mxGeometry>
        </mxCell>
        <mxCell id="Jb8ixT8g17bY8R6g0OLm-65" value="&lt;h3&gt;&lt;font style=&quot;font-size: 15px&quot;&gt;нет&lt;/font&gt;&lt;/h3&gt;" style="edgeStyle=orthogonalEdgeStyle;rounded=0;orthogonalLoop=1;jettySize=auto;html=1;entryX=0.5;entryY=0;entryDx=0;entryDy=0;exitX=0.25;exitY=1;exitDx=0;exitDy=0;" edge="1" parent="1">
          <mxGeometry relative="1" as="geometry">
            <mxPoint x="230" y="600" as="sourcePoint" />
            <mxPoint x="230" y="680" as="targetPoint" />
            <Array as="points">
              <mxPoint x="230" y="640" />
              <mxPoint x="230" y="640" />
            </Array>
            <mxPoint as="offset" />
          </mxGeometry>
        </mxCell>
        <mxCell id="Jb8ixT8g17bY8R6g0OLm-59" value="&lt;h3&gt;temp не кратно двум&lt;/h3&gt;" style="rounded=0;whiteSpace=wrap;html=1;glass=0;fillColor=#dae8fc;strokeColor=#6c8ebf;" vertex="1" parent="1">
          <mxGeometry x="200" y="540" width="120" height="60" as="geometry" />
        </mxCell>
        <mxCell id="Jb8ixT8g17bY8R6g0OLm-70" value="" style="edgeStyle=orthogonalEdgeStyle;rounded=0;orthogonalLoop=1;jettySize=auto;html=1;entryX=0.5;entryY=1;entryDx=0;entryDy=0;" edge="1" parent="1" source="Jb8ixT8g17bY8R6g0OLm-62" target="Jb8ixT8g17bY8R6g0OLm-53">
          <mxGeometry relative="1" as="geometry">
            <mxPoint x="90" y="710" as="targetPoint" />
          </mxGeometry>
        </mxCell>
        <mxCell id="Jb8ixT8g17bY8R6g0OLm-62" value="&lt;h3&gt;&lt;font style=&quot;font-size: 15px&quot;&gt;прибавляем 1 к temp&lt;/font&gt;&lt;/h3&gt;" style="whiteSpace=wrap;html=1;rounded=0;strokeColor=#6c8ebf;fillColor=#dae8fc;glass=0;" vertex="1" parent="1">
          <mxGeometry x="170" y="680" width="120" height="60" as="geometry" />
        </mxCell>
      </root>
    </mxGraphModel>
  </diagram>
</mxfile>
